<svg data-v-423bf9ae="" xmlns="http://www.w3.org/2000/svg" viewBox="0 0 401 112" class="iconLeft"><!----><!----><!----><g data-v-423bf9ae="" id="abef77e2-c15e-4689-97d3-89d9f4878dbc" fill="black" transform="matrix(5.5658623541953265,0,0,5.5658623541953265,87.91666263270639,13.088024809243095)"><path d="M7.61 12.88L8.84 12.88L5.04 2.38L3.80 2.38L0 12.88L1.23 12.88L2.08 10.43L6.76 10.43ZM2.45 9.36L4.43 3.71L6.39 9.36ZM15.12 7.32L15.12 8.37L19.34 8.37C19.01 10.39 17.26 11.90 15.14 11.90C12.78 11.90 10.87 10.01 10.87 7.63C10.87 5.25 12.78 3.36 15.14 3.36C16.73 3.36 18.13 4.22 18.85 5.51L19.81 4.97C18.90 3.34 17.15 2.24 15.14 2.24C12.14 2.24 9.75 4.65 9.75 7.63C9.75 10.61 12.14 13.02 15.14 13.02C18.11 13.02 20.53 10.61 20.53 7.63L20.53 7.32ZM25.34 13.02C27.13 13.02 28.58 11.95 28.58 10.12C28.58 6.54 23.47 7.42 23.47 4.92C23.47 3.87 24.33 3.36 25.31 3.36C26.11 3.36 26.78 3.69 27.20 4.29L28.07 3.55C27.49 2.82 26.48 2.24 25.27 2.24C23.66 2.24 22.35 3.29 22.35 5.00C22.35 8.38 27.46 7.54 27.46 10.15C27.46 11.27 26.53 11.90 25.36 11.90C24.17 11.90 23.31 11.25 22.94 10.29L21.93 10.89C22.47 12.18 23.78 13.02 25.34 13.02ZM35.33 13.02C38.33 13.02 40.72 10.61 40.72 7.63C40.72 4.65 38.33 2.24 35.33 2.24C32.36 2.24 29.94 4.65 29.94 7.63C29.94 10.61 32.36 13.02 35.33 13.02ZM35.33 11.90C32.97 11.90 31.06 10.01 31.06 7.63C31.06 5.25 32.97 3.36 35.33 3.36C37.71 3.36 39.60 5.25 39.60 7.63C39.60 10.01 37.71 11.90 35.33 11.90ZM48.70 3.46L48.70 2.38L42.96 2.38L42.96 12.88L44.08 12.88L44.08 8.17L48.11 8.17L48.11 7.09L44.08 7.09L44.08 3.46ZM56.11 2.38L49.18 2.38L49.18 3.50L52.08 3.50L52.08 12.88L53.20 12.88L53.20 3.50L56.11 3.50Z"></path></g><!----><g data-v-423bf9ae="" id="bbd864df-f7a1-43c4-b076-2e021c89d40a" transform="matrix(1.1111111111111112,0,0,1.1111111111111112,-21.117997911241325,0.44444444444444287)" stroke="none" fill="black"><path d="M80.562 41.754H52.861L67.299 0 19.437 58.247H47.14L32.702 100z"></path></g><!----></svg>